%TF.GenerationSoftware,KiCad,Pcbnew,6.0.1*%
%TF.CreationDate,2022-04-23T16:15:16+02:00*%
%TF.ProjectId,KWS36,4b575333-362e-46b6-9963-61645f706362,1.0.0*%
%TF.SameCoordinates,Original*%
%TF.FileFunction,Soldermask,Bot*%
%TF.FilePolarity,Negative*%
%FSLAX46Y46*%
G04 Gerber Fmt 4.6, Leading zero omitted, Abs format (unit mm)*
G04 Created by KiCad (PCBNEW 6.0.1) date 2022-04-23 16:15:16*
%MOMM*%
%LPD*%
G01*
G04 APERTURE LIST*
G04 Aperture macros list*
%AMHorizOval*
0 Thick line with rounded ends*
0 $1 width*
0 $2 $3 position (X,Y) of the first rounded end (center of the circle)*
0 $4 $5 position (X,Y) of the second rounded end (center of the circle)*
0 Add line between two ends*
20,1,$1,$2,$3,$4,$5,0*
0 Add two circle primitives to create the rounded ends*
1,1,$1,$2,$3*
1,1,$1,$4,$5*%
%AMRotRect*
0 Rectangle, with rotation*
0 The origin of the aperture is its center*
0 $1 length*
0 $2 width*
0 $3 Rotation angle, in degrees counterclockwise*
0 Add horizontal line*
21,1,$1,$2,0,0,$3*%
G04 Aperture macros list end*
%ADD10C,1.900000*%
%ADD11C,2.600000*%
%ADD12C,5.050000*%
%ADD13C,2.200000*%
%ADD14R,1.778000X1.397000*%
%ADD15O,1.778000X1.397000*%
%ADD16C,2.500000*%
%ADD17RotRect,1.778000X1.397000X335.000000*%
%ADD18HorizOval,1.397000X0.172652X-0.080509X-0.172652X0.080509X0*%
%ADD19R,0.800000X1.000000*%
%ADD20C,0.900000*%
%ADD21R,1.500000X0.700000*%
%ADD22C,1.524000*%
%ADD23C,2.000000*%
%ADD24C,1.200000*%
%ADD25O,2.500000X1.700000*%
G04 APERTURE END LIST*
D10*
%TO.C,SW18*%
X182765307Y-129175600D03*
X192734693Y-133824400D03*
D11*
X181041977Y-134054394D03*
D12*
X187750000Y-131500000D03*
D13*
X190243448Y-126152784D03*
X193887488Y-130169122D03*
%TD*%
D14*
%TO.C,D4*%
X118475000Y-52750000D03*
D15*
X112475000Y-52750000D03*
%TD*%
D12*
%TO.C,SW7*%
X134000000Y-44000000D03*
D10*
X139500000Y-44000000D03*
X128500000Y-44000000D03*
D11*
X139000000Y-38850000D03*
D13*
X134000000Y-49900000D03*
X129000000Y-47800000D03*
%TD*%
D14*
%TO.C,D3*%
X99975000Y-95250000D03*
D15*
X93975000Y-95250000D03*
%TD*%
D14*
%TO.C,D5*%
X118475000Y-70250000D03*
D15*
X112475000Y-70250000D03*
%TD*%
D10*
%TO.C,SW5*%
X121000000Y-61500000D03*
D11*
X120500000Y-56350000D03*
D12*
X115500000Y-61500000D03*
D10*
X110000000Y-61500000D03*
D13*
X115500000Y-67400000D03*
X110500000Y-65300000D03*
%TD*%
D14*
%TO.C,D9*%
X136975000Y-87750000D03*
D15*
X130975000Y-87750000D03*
%TD*%
D11*
%TO.C,SW4*%
X120500000Y-38850000D03*
D12*
X115500000Y-44000000D03*
D10*
X121000000Y-44000000D03*
X110000000Y-44000000D03*
D13*
X115500000Y-49900000D03*
X110500000Y-47800000D03*
%TD*%
D16*
%TO.C,REF\u002A\u002A*%
X198000000Y-119000000D03*
%TD*%
D14*
%TO.C,D6*%
X118475000Y-87750000D03*
D15*
X112475000Y-87750000D03*
%TD*%
D14*
%TO.C,D17*%
X173975000Y-87750000D03*
D15*
X167975000Y-87750000D03*
%TD*%
D11*
%TO.C,SW14*%
X164541977Y-125554394D03*
D10*
X166265307Y-120675600D03*
X176234693Y-125324400D03*
D12*
X171250000Y-123000000D03*
D13*
X173743448Y-117652784D03*
X177387488Y-121669122D03*
%TD*%
D14*
%TO.C,D7*%
X136975000Y-52750000D03*
D15*
X130975000Y-52750000D03*
%TD*%
D12*
%TO.C,SW1*%
X97000000Y-51500000D03*
D11*
X102000000Y-46350000D03*
D10*
X91500000Y-51500000D03*
X102500000Y-51500000D03*
D13*
X97000000Y-57400000D03*
X92000000Y-55300000D03*
%TD*%
D17*
%TO.C,D14*%
X172031077Y-112732145D03*
D18*
X177468923Y-115267855D03*
%TD*%
D11*
%TO.C,SW2*%
X102000000Y-63850000D03*
D10*
X102500000Y-69000000D03*
D12*
X97000000Y-69000000D03*
D10*
X91500000Y-69000000D03*
D13*
X97000000Y-74900000D03*
X92000000Y-72800000D03*
%TD*%
D19*
%TO.C,REF\u002A\u002A*%
X198195000Y-44850000D03*
D20*
X199305000Y-50000000D03*
D19*
X200405000Y-44850000D03*
X200405000Y-52150000D03*
D20*
X199305000Y-47000000D03*
D19*
X198195000Y-52150000D03*
D21*
X197545000Y-50750000D03*
X197545000Y-49250000D03*
X197545000Y-46250000D03*
%TD*%
D14*
%TO.C,D2*%
X100225000Y-77750000D03*
D15*
X94225000Y-77750000D03*
%TD*%
D22*
%TO.C,U1*%
X198111400Y-57347000D03*
X198111400Y-59887000D03*
X198111400Y-62427000D03*
X198111400Y-64967000D03*
X198111400Y-67507000D03*
X198111400Y-70047000D03*
X198111400Y-72587000D03*
X198111400Y-75127000D03*
X198111400Y-77667000D03*
X198111400Y-80207000D03*
X198111400Y-82747000D03*
X198111400Y-85287000D03*
X182891400Y-85287000D03*
X182891400Y-82747000D03*
X182891400Y-80207000D03*
X182891400Y-77667000D03*
X182891400Y-75127000D03*
X182891400Y-72587000D03*
X182891400Y-70047000D03*
X182891400Y-67507000D03*
X182891400Y-64967000D03*
X182891400Y-62427000D03*
X182891400Y-59887000D03*
X182891400Y-57347000D03*
%TD*%
D23*
%TO.C,SW19*%
X184000000Y-90350000D03*
X184000000Y-96850000D03*
%TD*%
D17*
%TO.C,D18*%
X188531077Y-121232145D03*
D18*
X193968923Y-123767855D03*
%TD*%
D10*
%TO.C,SW15*%
X165500000Y-44000000D03*
X176500000Y-44000000D03*
D11*
X176000000Y-38850000D03*
D12*
X171000000Y-44000000D03*
D13*
X171000000Y-49900000D03*
X166000000Y-47800000D03*
%TD*%
D10*
%TO.C,SW13*%
X147000000Y-79000000D03*
D12*
X152500000Y-79000000D03*
D10*
X158000000Y-79000000D03*
D11*
X157500000Y-73850000D03*
D13*
X152500000Y-84900000D03*
X147500000Y-82800000D03*
%TD*%
D11*
%TO.C,SW16*%
X176000000Y-56350000D03*
D12*
X171000000Y-61500000D03*
D10*
X165500000Y-61500000D03*
X176500000Y-61500000D03*
D13*
X171000000Y-67400000D03*
X166000000Y-65300000D03*
%TD*%
D12*
%TO.C,SW11*%
X152500000Y-44000000D03*
D11*
X157500000Y-38850000D03*
D10*
X158000000Y-44000000D03*
X147000000Y-44000000D03*
D13*
X152500000Y-49900000D03*
X147500000Y-47800000D03*
%TD*%
D14*
%TO.C,D13*%
X155475000Y-87750000D03*
D15*
X149475000Y-87750000D03*
%TD*%
D14*
%TO.C,D12*%
X155475000Y-70250000D03*
D15*
X149475000Y-70250000D03*
%TD*%
D24*
%TO.C,J1*%
X191000000Y-92350000D03*
X198000000Y-92350000D03*
X191000000Y-94100000D03*
X198000000Y-94100000D03*
D25*
X187700000Y-94450000D03*
X187700000Y-92000000D03*
X196200000Y-96200000D03*
X196200000Y-90250000D03*
X193200000Y-90250000D03*
X193200000Y-96200000D03*
X189200000Y-90250000D03*
X189200000Y-96200000D03*
%TD*%
D14*
%TO.C,D1*%
X101500000Y-59500000D03*
D15*
X95500000Y-59500000D03*
%TD*%
D14*
%TO.C,D11*%
X155475000Y-52750000D03*
D15*
X149475000Y-52750000D03*
%TD*%
D12*
%TO.C,SW10*%
X154750000Y-114500000D03*
D10*
X159734693Y-116824400D03*
D11*
X148041977Y-117054394D03*
D10*
X149765307Y-112175600D03*
D13*
X157243448Y-109152784D03*
X160887488Y-113169122D03*
%TD*%
D16*
%TO.C,REF\u002A\u002A*%
X198000000Y-39500000D03*
%TD*%
D14*
%TO.C,D15*%
X174000000Y-52750000D03*
D15*
X168000000Y-52750000D03*
%TD*%
D10*
%TO.C,SW9*%
X139500000Y-79000000D03*
D12*
X134000000Y-79000000D03*
D10*
X128500000Y-79000000D03*
D11*
X139000000Y-73850000D03*
D13*
X134000000Y-84900000D03*
X129000000Y-82800000D03*
%TD*%
D17*
%TO.C,D10*%
X155531077Y-104232145D03*
D18*
X160968923Y-106767855D03*
%TD*%
D12*
%TO.C,SW12*%
X152500000Y-61500000D03*
D10*
X147000000Y-61500000D03*
X158000000Y-61500000D03*
D11*
X157500000Y-56350000D03*
D13*
X152500000Y-67400000D03*
X147500000Y-65300000D03*
%TD*%
D16*
%TO.C,REF\u002A\u002A*%
X103000000Y-39500000D03*
%TD*%
D12*
%TO.C,SW17*%
X171000000Y-79000000D03*
D11*
X176000000Y-73850000D03*
D10*
X176500000Y-79000000D03*
X165500000Y-79000000D03*
D13*
X171000000Y-84900000D03*
X166000000Y-82800000D03*
%TD*%
D14*
%TO.C,D16*%
X173975000Y-70250000D03*
D15*
X167975000Y-70250000D03*
%TD*%
D14*
%TO.C,D8*%
X136975000Y-70250000D03*
D15*
X130975000Y-70250000D03*
%TD*%
D10*
%TO.C,SW8*%
X139500000Y-61500000D03*
X128500000Y-61500000D03*
D11*
X139000000Y-56350000D03*
D12*
X134000000Y-61500000D03*
D13*
X134000000Y-67400000D03*
X129000000Y-65300000D03*
%TD*%
D12*
%TO.C,SW6*%
X115500000Y-79000000D03*
D10*
X110000000Y-79000000D03*
X121000000Y-79000000D03*
D11*
X120500000Y-73850000D03*
D13*
X115500000Y-84900000D03*
X110500000Y-82800000D03*
%TD*%
D16*
%TO.C,REF\u002A\u002A*%
X103000000Y-100000000D03*
%TD*%
D10*
%TO.C,SW3*%
X91500000Y-86500000D03*
X102500000Y-86500000D03*
D11*
X102000000Y-81350000D03*
D12*
X97000000Y-86500000D03*
D13*
X97000000Y-92400000D03*
X92000000Y-90300000D03*
%TD*%
M02*
