%TF.GenerationSoftware,KiCad,Pcbnew,6.0.1*%
%TF.CreationDate,2022-04-23T16:15:16+02:00*%
%TF.ProjectId,KWS36,4b575333-362e-46b6-9963-61645f706362,1.0.0*%
%TF.SameCoordinates,Original*%
%TF.FileFunction,Legend,Top*%
%TF.FilePolarity,Positive*%
%FSLAX46Y46*%
G04 Gerber Fmt 4.6, Leading zero omitted, Abs format (unit mm)*
G04 Created by KiCad (PCBNEW 6.0.1) date 2022-04-23 16:15:16*
%MOMM*%
%LPD*%
G01*
G04 APERTURE LIST*
%ADD10C,0.150000*%
%ADD11C,0.125000*%
%ADD12C,0.120000*%
%ADD13C,1.200000*%
%ADD14O,2.500000X1.700000*%
G04 APERTURE END LIST*
D10*
%TO.C,REF\u002A\u002A*%
X196227380Y-49833333D02*
X195751190Y-50166666D01*
X196227380Y-50404761D02*
X195227380Y-50404761D01*
X195227380Y-50023809D01*
X195275000Y-49928571D01*
X195322619Y-49880952D01*
X195417857Y-49833333D01*
X195560714Y-49833333D01*
X195655952Y-49880952D01*
X195703571Y-49928571D01*
X195751190Y-50023809D01*
X195751190Y-50404761D01*
X195703571Y-49404761D02*
X195703571Y-49071428D01*
X196227380Y-48928571D02*
X196227380Y-49404761D01*
X195227380Y-49404761D01*
X195227380Y-48928571D01*
X195703571Y-48166666D02*
X195703571Y-48500000D01*
X196227380Y-48500000D02*
X195227380Y-48500000D01*
X195227380Y-48023809D01*
X195227380Y-47500000D02*
X195465476Y-47500000D01*
X195370238Y-47738095D02*
X195465476Y-47500000D01*
X195370238Y-47261904D01*
X195655952Y-47642857D02*
X195465476Y-47500000D01*
X195655952Y-47357142D01*
X195227380Y-46738095D02*
X195465476Y-46738095D01*
X195370238Y-46976190D02*
X195465476Y-46738095D01*
X195370238Y-46500000D01*
X195655952Y-46880952D02*
X195465476Y-46738095D01*
X195655952Y-46595238D01*
D11*
%TO.C,U1*%
X194263809Y-85071428D02*
X194359523Y-85107142D01*
X194391428Y-85142857D01*
X194423333Y-85214285D01*
X194423333Y-85321428D01*
X194391428Y-85392857D01*
X194359523Y-85428571D01*
X194295714Y-85464285D01*
X194040476Y-85464285D01*
X194040476Y-84714285D01*
X194263809Y-84714285D01*
X194327619Y-84750000D01*
X194359523Y-84785714D01*
X194391428Y-84857142D01*
X194391428Y-84928571D01*
X194359523Y-85000000D01*
X194327619Y-85035714D01*
X194263809Y-85071428D01*
X194040476Y-85071428D01*
X195029523Y-84714285D02*
X194710476Y-84714285D01*
X194678571Y-85071428D01*
X194710476Y-85035714D01*
X194774285Y-85000000D01*
X194933809Y-85000000D01*
X194997619Y-85035714D01*
X195029523Y-85071428D01*
X195061428Y-85142857D01*
X195061428Y-85321428D01*
X195029523Y-85392857D01*
X194997619Y-85428571D01*
X194933809Y-85464285D01*
X194774285Y-85464285D01*
X194710476Y-85428571D01*
X194678571Y-85392857D01*
X195827142Y-84678571D02*
X195252857Y-85642857D01*
X196082380Y-85464285D02*
X196210000Y-85464285D01*
X196273809Y-85428571D01*
X196305714Y-85392857D01*
X196369523Y-85285714D01*
X196401428Y-85142857D01*
X196401428Y-84857142D01*
X196369523Y-84785714D01*
X196337619Y-84750000D01*
X196273809Y-84714285D01*
X196146190Y-84714285D01*
X196082380Y-84750000D01*
X196050476Y-84785714D01*
X196018571Y-84857142D01*
X196018571Y-85035714D01*
X196050476Y-85107142D01*
X196082380Y-85142857D01*
X196146190Y-85178571D01*
X196273809Y-85178571D01*
X196337619Y-85142857D01*
X196369523Y-85107142D01*
X196401428Y-85035714D01*
D12*
X188003571Y-53214285D02*
X188003571Y-52464285D01*
X188253571Y-53000000D01*
X188503571Y-52464285D01*
X188503571Y-53214285D01*
X188860714Y-53214285D02*
X188860714Y-52714285D01*
X188860714Y-52464285D02*
X188825000Y-52500000D01*
X188860714Y-52535714D01*
X188896428Y-52500000D01*
X188860714Y-52464285D01*
X188860714Y-52535714D01*
X189539285Y-53178571D02*
X189467857Y-53214285D01*
X189325000Y-53214285D01*
X189253571Y-53178571D01*
X189217857Y-53142857D01*
X189182142Y-53071428D01*
X189182142Y-52857142D01*
X189217857Y-52785714D01*
X189253571Y-52750000D01*
X189325000Y-52714285D01*
X189467857Y-52714285D01*
X189539285Y-52750000D01*
X189860714Y-53214285D02*
X189860714Y-52714285D01*
X189860714Y-52857142D02*
X189896428Y-52785714D01*
X189932142Y-52750000D01*
X190003571Y-52714285D01*
X190075000Y-52714285D01*
X190432142Y-53214285D02*
X190360714Y-53178571D01*
X190325000Y-53142857D01*
X190289285Y-53071428D01*
X190289285Y-52857142D01*
X190325000Y-52785714D01*
X190360714Y-52750000D01*
X190432142Y-52714285D01*
X190539285Y-52714285D01*
X190610714Y-52750000D01*
X190646428Y-52785714D01*
X190682142Y-52857142D01*
X190682142Y-53071428D01*
X190646428Y-53142857D01*
X190610714Y-53178571D01*
X190539285Y-53214285D01*
X190432142Y-53214285D01*
X191003571Y-52464285D02*
X191003571Y-53071428D01*
X191039285Y-53142857D01*
X191075000Y-53178571D01*
X191146428Y-53214285D01*
X191289285Y-53214285D01*
X191360714Y-53178571D01*
X191396428Y-53142857D01*
X191432142Y-53071428D01*
X191432142Y-52464285D01*
X191753571Y-53178571D02*
X191860714Y-53214285D01*
X192039285Y-53214285D01*
X192110714Y-53178571D01*
X192146428Y-53142857D01*
X192182142Y-53071428D01*
X192182142Y-53000000D01*
X192146428Y-52928571D01*
X192110714Y-52892857D01*
X192039285Y-52857142D01*
X191896428Y-52821428D01*
X191825000Y-52785714D01*
X191789285Y-52750000D01*
X191753571Y-52678571D01*
X191753571Y-52607142D01*
X191789285Y-52535714D01*
X191825000Y-52500000D01*
X191896428Y-52464285D01*
X192075000Y-52464285D01*
X192182142Y-52500000D01*
X192753571Y-52821428D02*
X192860714Y-52857142D01*
X192896428Y-52892857D01*
X192932142Y-52964285D01*
X192932142Y-53071428D01*
X192896428Y-53142857D01*
X192860714Y-53178571D01*
X192789285Y-53214285D01*
X192503571Y-53214285D01*
X192503571Y-52464285D01*
X192753571Y-52464285D01*
X192825000Y-52500000D01*
X192860714Y-52535714D01*
X192896428Y-52607142D01*
X192896428Y-52678571D01*
X192860714Y-52750000D01*
X192825000Y-52785714D01*
X192753571Y-52821428D01*
X192503571Y-52821428D01*
D11*
X185042380Y-57664285D02*
X184819047Y-57307142D01*
X184659523Y-57664285D02*
X184659523Y-56914285D01*
X184914761Y-56914285D01*
X184978571Y-56950000D01*
X185010476Y-56985714D01*
X185042380Y-57057142D01*
X185042380Y-57164285D01*
X185010476Y-57235714D01*
X184978571Y-57271428D01*
X184914761Y-57307142D01*
X184659523Y-57307142D01*
X185297619Y-57450000D02*
X185616666Y-57450000D01*
X185233809Y-57664285D02*
X185457142Y-56914285D01*
X185680476Y-57664285D01*
X185840000Y-56914285D02*
X185999523Y-57664285D01*
X186127142Y-57128571D01*
X186254761Y-57664285D01*
X186414285Y-56914285D01*
X194944523Y-64550000D02*
X194880714Y-64514285D01*
X194785000Y-64514285D01*
X194689285Y-64550000D01*
X194625476Y-64621428D01*
X194593571Y-64692857D01*
X194561666Y-64835714D01*
X194561666Y-64942857D01*
X194593571Y-65085714D01*
X194625476Y-65157142D01*
X194689285Y-65228571D01*
X194785000Y-65264285D01*
X194848809Y-65264285D01*
X194944523Y-65228571D01*
X194976428Y-65192857D01*
X194976428Y-64942857D01*
X194848809Y-64942857D01*
X195263571Y-65264285D02*
X195263571Y-64514285D01*
X195646428Y-65264285D01*
X195646428Y-64514285D01*
X195965476Y-65264285D02*
X195965476Y-64514285D01*
X196125000Y-64514285D01*
X196220714Y-64550000D01*
X196284523Y-64621428D01*
X196316428Y-64692857D01*
X196348333Y-64835714D01*
X196348333Y-64942857D01*
X196316428Y-65085714D01*
X196284523Y-65157142D01*
X196220714Y-65228571D01*
X196125000Y-65264285D01*
X195965476Y-65264285D01*
X194423333Y-75242857D02*
X194391428Y-75278571D01*
X194295714Y-75314285D01*
X194231904Y-75314285D01*
X194136190Y-75278571D01*
X194072380Y-75207142D01*
X194040476Y-75135714D01*
X194008571Y-74992857D01*
X194008571Y-74885714D01*
X194040476Y-74742857D01*
X194072380Y-74671428D01*
X194136190Y-74600000D01*
X194231904Y-74564285D01*
X194295714Y-74564285D01*
X194391428Y-74600000D01*
X194423333Y-74635714D01*
X194997619Y-74564285D02*
X194870000Y-74564285D01*
X194806190Y-74600000D01*
X194774285Y-74635714D01*
X194710476Y-74742857D01*
X194678571Y-74885714D01*
X194678571Y-75171428D01*
X194710476Y-75242857D01*
X194742380Y-75278571D01*
X194806190Y-75314285D01*
X194933809Y-75314285D01*
X194997619Y-75278571D01*
X195029523Y-75242857D01*
X195061428Y-75171428D01*
X195061428Y-74992857D01*
X195029523Y-74921428D01*
X194997619Y-74885714D01*
X194933809Y-74850000D01*
X194806190Y-74850000D01*
X194742380Y-74885714D01*
X194710476Y-74921428D01*
X194678571Y-74992857D01*
X195827142Y-74528571D02*
X195252857Y-75492857D01*
X196369523Y-74564285D02*
X196050476Y-74564285D01*
X196018571Y-74921428D01*
X196050476Y-74885714D01*
X196114285Y-74850000D01*
X196273809Y-74850000D01*
X196337619Y-74885714D01*
X196369523Y-74921428D01*
X196401428Y-74992857D01*
X196401428Y-75171428D01*
X196369523Y-75242857D01*
X196337619Y-75278571D01*
X196273809Y-75314285D01*
X196114285Y-75314285D01*
X196050476Y-75278571D01*
X196018571Y-75242857D01*
X184669285Y-70200000D02*
X184988333Y-70200000D01*
X184605476Y-70414285D02*
X184828809Y-69664285D01*
X185052142Y-70414285D01*
X185243571Y-69735714D02*
X185275476Y-69700000D01*
X185339285Y-69664285D01*
X185498809Y-69664285D01*
X185562619Y-69700000D01*
X185594523Y-69735714D01*
X185626428Y-69807142D01*
X185626428Y-69878571D01*
X185594523Y-69985714D01*
X185211666Y-70414285D01*
X185626428Y-70414285D01*
X186392142Y-69628571D02*
X185817857Y-70592857D01*
X186838809Y-70021428D02*
X186615476Y-70021428D01*
X186615476Y-70414285D02*
X186615476Y-69664285D01*
X186934523Y-69664285D01*
X187508809Y-69664285D02*
X187189761Y-69664285D01*
X187157857Y-70021428D01*
X187189761Y-69985714D01*
X187253571Y-69950000D01*
X187413095Y-69950000D01*
X187476904Y-69985714D01*
X187508809Y-70021428D01*
X187540714Y-70092857D01*
X187540714Y-70271428D01*
X187508809Y-70342857D01*
X187476904Y-70378571D01*
X187413095Y-70414285D01*
X187253571Y-70414285D01*
X187189761Y-70378571D01*
X187157857Y-70342857D01*
X191482380Y-70228571D02*
X191578095Y-70264285D01*
X191737619Y-70264285D01*
X191801428Y-70228571D01*
X191833333Y-70192857D01*
X191865238Y-70121428D01*
X191865238Y-70050000D01*
X191833333Y-69978571D01*
X191801428Y-69942857D01*
X191737619Y-69907142D01*
X191610000Y-69871428D01*
X191546190Y-69835714D01*
X191514285Y-69800000D01*
X191482380Y-69728571D01*
X191482380Y-69657142D01*
X191514285Y-69585714D01*
X191546190Y-69550000D01*
X191610000Y-69514285D01*
X191769523Y-69514285D01*
X191865238Y-69550000D01*
X192535238Y-70192857D02*
X192503333Y-70228571D01*
X192407619Y-70264285D01*
X192343809Y-70264285D01*
X192248095Y-70228571D01*
X192184285Y-70157142D01*
X192152380Y-70085714D01*
X192120476Y-69942857D01*
X192120476Y-69835714D01*
X192152380Y-69692857D01*
X192184285Y-69621428D01*
X192248095Y-69550000D01*
X192343809Y-69514285D01*
X192407619Y-69514285D01*
X192503333Y-69550000D01*
X192535238Y-69585714D01*
X193141428Y-70264285D02*
X192822380Y-70264285D01*
X192822380Y-69514285D01*
X193843333Y-69478571D02*
X193269047Y-70442857D01*
X194066666Y-70264285D02*
X194066666Y-69514285D01*
X194226190Y-69514285D01*
X194321904Y-69550000D01*
X194385714Y-69621428D01*
X194417619Y-69692857D01*
X194449523Y-69835714D01*
X194449523Y-69942857D01*
X194417619Y-70085714D01*
X194385714Y-70157142D01*
X194321904Y-70228571D01*
X194226190Y-70264285D01*
X194066666Y-70264285D01*
X194864285Y-69514285D02*
X194928095Y-69514285D01*
X194991904Y-69550000D01*
X195023809Y-69585714D01*
X195055714Y-69657142D01*
X195087619Y-69800000D01*
X195087619Y-69978571D01*
X195055714Y-70121428D01*
X195023809Y-70192857D01*
X194991904Y-70228571D01*
X194928095Y-70264285D01*
X194864285Y-70264285D01*
X194800476Y-70228571D01*
X194768571Y-70192857D01*
X194736666Y-70121428D01*
X194704761Y-69978571D01*
X194704761Y-69800000D01*
X194736666Y-69657142D01*
X194768571Y-69585714D01*
X194800476Y-69550000D01*
X194864285Y-69514285D01*
X195853333Y-69478571D02*
X195279047Y-70442857D01*
X196012857Y-69514285D02*
X196427619Y-69514285D01*
X196204285Y-69800000D01*
X196300000Y-69800000D01*
X196363809Y-69835714D01*
X196395714Y-69871428D01*
X196427619Y-69942857D01*
X196427619Y-70121428D01*
X196395714Y-70192857D01*
X196363809Y-70228571D01*
X196300000Y-70264285D01*
X196108571Y-70264285D01*
X196044761Y-70228571D01*
X196012857Y-70192857D01*
X184611666Y-64464285D02*
X184835000Y-65214285D01*
X185058333Y-64464285D01*
X185664523Y-65142857D02*
X185632619Y-65178571D01*
X185536904Y-65214285D01*
X185473095Y-65214285D01*
X185377380Y-65178571D01*
X185313571Y-65107142D01*
X185281666Y-65035714D01*
X185249761Y-64892857D01*
X185249761Y-64785714D01*
X185281666Y-64642857D01*
X185313571Y-64571428D01*
X185377380Y-64500000D01*
X185473095Y-64464285D01*
X185536904Y-64464285D01*
X185632619Y-64500000D01*
X185664523Y-64535714D01*
X186334523Y-65142857D02*
X186302619Y-65178571D01*
X186206904Y-65214285D01*
X186143095Y-65214285D01*
X186047380Y-65178571D01*
X185983571Y-65107142D01*
X185951666Y-65035714D01*
X185919761Y-64892857D01*
X185919761Y-64785714D01*
X185951666Y-64642857D01*
X185983571Y-64571428D01*
X186047380Y-64500000D01*
X186143095Y-64464285D01*
X186206904Y-64464285D01*
X186302619Y-64500000D01*
X186334523Y-64535714D01*
X192916190Y-57714285D02*
X192916190Y-56964285D01*
X193075714Y-56964285D01*
X193171428Y-57000000D01*
X193235238Y-57071428D01*
X193267142Y-57142857D01*
X193299047Y-57285714D01*
X193299047Y-57392857D01*
X193267142Y-57535714D01*
X193235238Y-57607142D01*
X193171428Y-57678571D01*
X193075714Y-57714285D01*
X192916190Y-57714285D01*
X193522380Y-56964285D02*
X193937142Y-56964285D01*
X193713809Y-57250000D01*
X193809523Y-57250000D01*
X193873333Y-57285714D01*
X193905238Y-57321428D01*
X193937142Y-57392857D01*
X193937142Y-57571428D01*
X193905238Y-57642857D01*
X193873333Y-57678571D01*
X193809523Y-57714285D01*
X193618095Y-57714285D01*
X193554285Y-57678571D01*
X193522380Y-57642857D01*
X194702857Y-56928571D02*
X194128571Y-57892857D01*
X194830476Y-56964285D02*
X195213333Y-56964285D01*
X195021904Y-57714285D02*
X195021904Y-56964285D01*
X195372857Y-56964285D02*
X195819523Y-57714285D01*
X195819523Y-56964285D02*
X195372857Y-57714285D01*
X196202380Y-56964285D02*
X196266190Y-56964285D01*
X196330000Y-57000000D01*
X196361904Y-57035714D01*
X196393809Y-57107142D01*
X196425714Y-57250000D01*
X196425714Y-57428571D01*
X196393809Y-57571428D01*
X196361904Y-57642857D01*
X196330000Y-57678571D01*
X196266190Y-57714285D01*
X196202380Y-57714285D01*
X196138571Y-57678571D01*
X196106666Y-57642857D01*
X196074761Y-57571428D01*
X196042857Y-57428571D01*
X196042857Y-57250000D01*
X196074761Y-57107142D01*
X196106666Y-57035714D01*
X196138571Y-57000000D01*
X196202380Y-56964285D01*
X184972380Y-80564285D02*
X184589523Y-80564285D01*
X184780952Y-80564285D02*
X184780952Y-79814285D01*
X184717142Y-79921428D01*
X184653333Y-79992857D01*
X184589523Y-80028571D01*
X185546666Y-80064285D02*
X185546666Y-80564285D01*
X185387142Y-79778571D02*
X185227619Y-80314285D01*
X185642380Y-80314285D01*
X186376190Y-79778571D02*
X185801904Y-80742857D01*
X186822857Y-80171428D02*
X186918571Y-80207142D01*
X186950476Y-80242857D01*
X186982380Y-80314285D01*
X186982380Y-80421428D01*
X186950476Y-80492857D01*
X186918571Y-80528571D01*
X186854761Y-80564285D01*
X186599523Y-80564285D01*
X186599523Y-79814285D01*
X186822857Y-79814285D01*
X186886666Y-79850000D01*
X186918571Y-79885714D01*
X186950476Y-79957142D01*
X186950476Y-80028571D01*
X186918571Y-80100000D01*
X186886666Y-80135714D01*
X186822857Y-80171428D01*
X186599523Y-80171428D01*
X187205714Y-79814285D02*
X187620476Y-79814285D01*
X187397142Y-80100000D01*
X187492857Y-80100000D01*
X187556666Y-80135714D01*
X187588571Y-80171428D01*
X187620476Y-80242857D01*
X187620476Y-80421428D01*
X187588571Y-80492857D01*
X187556666Y-80528571D01*
X187492857Y-80564285D01*
X187301428Y-80564285D01*
X187237619Y-80528571D01*
X187205714Y-80492857D01*
X192836428Y-60264285D02*
X192836428Y-59514285D01*
X192995952Y-59514285D01*
X193091666Y-59550000D01*
X193155476Y-59621428D01*
X193187380Y-59692857D01*
X193219285Y-59835714D01*
X193219285Y-59942857D01*
X193187380Y-60085714D01*
X193155476Y-60157142D01*
X193091666Y-60228571D01*
X192995952Y-60264285D01*
X192836428Y-60264285D01*
X193474523Y-59585714D02*
X193506428Y-59550000D01*
X193570238Y-59514285D01*
X193729761Y-59514285D01*
X193793571Y-59550000D01*
X193825476Y-59585714D01*
X193857380Y-59657142D01*
X193857380Y-59728571D01*
X193825476Y-59835714D01*
X193442619Y-60264285D01*
X193857380Y-60264285D01*
X194623095Y-59478571D02*
X194048809Y-60442857D01*
X195229285Y-60264285D02*
X195005952Y-59907142D01*
X194846428Y-60264285D02*
X194846428Y-59514285D01*
X195101666Y-59514285D01*
X195165476Y-59550000D01*
X195197380Y-59585714D01*
X195229285Y-59657142D01*
X195229285Y-59764285D01*
X195197380Y-59835714D01*
X195165476Y-59871428D01*
X195101666Y-59907142D01*
X194846428Y-59907142D01*
X195452619Y-59514285D02*
X195899285Y-60264285D01*
X195899285Y-59514285D02*
X195452619Y-60264285D01*
X196505476Y-60264285D02*
X196122619Y-60264285D01*
X196314047Y-60264285D02*
X196314047Y-59514285D01*
X196250238Y-59621428D01*
X196186428Y-59692857D01*
X196122619Y-59728571D01*
X194944523Y-62100000D02*
X194880714Y-62064285D01*
X194785000Y-62064285D01*
X194689285Y-62100000D01*
X194625476Y-62171428D01*
X194593571Y-62242857D01*
X194561666Y-62385714D01*
X194561666Y-62492857D01*
X194593571Y-62635714D01*
X194625476Y-62707142D01*
X194689285Y-62778571D01*
X194785000Y-62814285D01*
X194848809Y-62814285D01*
X194944523Y-62778571D01*
X194976428Y-62742857D01*
X194976428Y-62492857D01*
X194848809Y-62492857D01*
X195263571Y-62814285D02*
X195263571Y-62064285D01*
X195646428Y-62814285D01*
X195646428Y-62064285D01*
X195965476Y-62814285D02*
X195965476Y-62064285D01*
X196125000Y-62064285D01*
X196220714Y-62100000D01*
X196284523Y-62171428D01*
X196316428Y-62242857D01*
X196348333Y-62385714D01*
X196348333Y-62492857D01*
X196316428Y-62635714D01*
X196284523Y-62707142D01*
X196220714Y-62778571D01*
X196125000Y-62814285D01*
X195965476Y-62814285D01*
X184669285Y-75250000D02*
X184988333Y-75250000D01*
X184605476Y-75464285D02*
X184828809Y-74714285D01*
X185052142Y-75464285D01*
X185403095Y-74714285D02*
X185466904Y-74714285D01*
X185530714Y-74750000D01*
X185562619Y-74785714D01*
X185594523Y-74857142D01*
X185626428Y-75000000D01*
X185626428Y-75178571D01*
X185594523Y-75321428D01*
X185562619Y-75392857D01*
X185530714Y-75428571D01*
X185466904Y-75464285D01*
X185403095Y-75464285D01*
X185339285Y-75428571D01*
X185307380Y-75392857D01*
X185275476Y-75321428D01*
X185243571Y-75178571D01*
X185243571Y-75000000D01*
X185275476Y-74857142D01*
X185307380Y-74785714D01*
X185339285Y-74750000D01*
X185403095Y-74714285D01*
X186392142Y-74678571D02*
X185817857Y-75642857D01*
X186838809Y-75071428D02*
X186615476Y-75071428D01*
X186615476Y-75464285D02*
X186615476Y-74714285D01*
X186934523Y-74714285D01*
X187125952Y-74714285D02*
X187572619Y-74714285D01*
X187285476Y-75464285D01*
X184972380Y-83114285D02*
X184589523Y-83114285D01*
X184780952Y-83114285D02*
X184780952Y-82364285D01*
X184717142Y-82471428D01*
X184653333Y-82542857D01*
X184589523Y-82578571D01*
X185546666Y-82364285D02*
X185419047Y-82364285D01*
X185355238Y-82400000D01*
X185323333Y-82435714D01*
X185259523Y-82542857D01*
X185227619Y-82685714D01*
X185227619Y-82971428D01*
X185259523Y-83042857D01*
X185291428Y-83078571D01*
X185355238Y-83114285D01*
X185482857Y-83114285D01*
X185546666Y-83078571D01*
X185578571Y-83042857D01*
X185610476Y-82971428D01*
X185610476Y-82792857D01*
X185578571Y-82721428D01*
X185546666Y-82685714D01*
X185482857Y-82650000D01*
X185355238Y-82650000D01*
X185291428Y-82685714D01*
X185259523Y-82721428D01*
X185227619Y-82792857D01*
X186376190Y-82328571D02*
X185801904Y-83292857D01*
X186822857Y-82721428D02*
X186918571Y-82757142D01*
X186950476Y-82792857D01*
X186982380Y-82864285D01*
X186982380Y-82971428D01*
X186950476Y-83042857D01*
X186918571Y-83078571D01*
X186854761Y-83114285D01*
X186599523Y-83114285D01*
X186599523Y-82364285D01*
X186822857Y-82364285D01*
X186886666Y-82400000D01*
X186918571Y-82435714D01*
X186950476Y-82507142D01*
X186950476Y-82578571D01*
X186918571Y-82650000D01*
X186886666Y-82685714D01*
X186822857Y-82721428D01*
X186599523Y-82721428D01*
X187237619Y-82435714D02*
X187269523Y-82400000D01*
X187333333Y-82364285D01*
X187492857Y-82364285D01*
X187556666Y-82400000D01*
X187588571Y-82435714D01*
X187620476Y-82507142D01*
X187620476Y-82578571D01*
X187588571Y-82685714D01*
X187205714Y-83114285D01*
X187620476Y-83114285D01*
X184669285Y-72700000D02*
X184988333Y-72700000D01*
X184605476Y-72914285D02*
X184828809Y-72164285D01*
X185052142Y-72914285D01*
X185626428Y-72914285D02*
X185243571Y-72914285D01*
X185435000Y-72914285D02*
X185435000Y-72164285D01*
X185371190Y-72271428D01*
X185307380Y-72342857D01*
X185243571Y-72378571D01*
X186392142Y-72128571D02*
X185817857Y-73092857D01*
X186838809Y-72521428D02*
X186615476Y-72521428D01*
X186615476Y-72914285D02*
X186615476Y-72164285D01*
X186934523Y-72164285D01*
X187476904Y-72164285D02*
X187349285Y-72164285D01*
X187285476Y-72200000D01*
X187253571Y-72235714D01*
X187189761Y-72342857D01*
X187157857Y-72485714D01*
X187157857Y-72771428D01*
X187189761Y-72842857D01*
X187221666Y-72878571D01*
X187285476Y-72914285D01*
X187413095Y-72914285D01*
X187476904Y-72878571D01*
X187508809Y-72842857D01*
X187540714Y-72771428D01*
X187540714Y-72592857D01*
X187508809Y-72521428D01*
X187476904Y-72485714D01*
X187413095Y-72450000D01*
X187285476Y-72450000D01*
X187221666Y-72485714D01*
X187189761Y-72521428D01*
X187157857Y-72592857D01*
X191466428Y-67728571D02*
X191562142Y-67764285D01*
X191721666Y-67764285D01*
X191785476Y-67728571D01*
X191817380Y-67692857D01*
X191849285Y-67621428D01*
X191849285Y-67550000D01*
X191817380Y-67478571D01*
X191785476Y-67442857D01*
X191721666Y-67407142D01*
X191594047Y-67371428D01*
X191530238Y-67335714D01*
X191498333Y-67300000D01*
X191466428Y-67228571D01*
X191466428Y-67157142D01*
X191498333Y-67085714D01*
X191530238Y-67050000D01*
X191594047Y-67014285D01*
X191753571Y-67014285D01*
X191849285Y-67050000D01*
X192136428Y-67764285D02*
X192136428Y-67014285D01*
X192295952Y-67014285D01*
X192391666Y-67050000D01*
X192455476Y-67121428D01*
X192487380Y-67192857D01*
X192519285Y-67335714D01*
X192519285Y-67442857D01*
X192487380Y-67585714D01*
X192455476Y-67657142D01*
X192391666Y-67728571D01*
X192295952Y-67764285D01*
X192136428Y-67764285D01*
X192774523Y-67550000D02*
X193093571Y-67550000D01*
X192710714Y-67764285D02*
X192934047Y-67014285D01*
X193157380Y-67764285D01*
X193859285Y-66978571D02*
X193285000Y-67942857D01*
X194082619Y-67764285D02*
X194082619Y-67014285D01*
X194242142Y-67014285D01*
X194337857Y-67050000D01*
X194401666Y-67121428D01*
X194433571Y-67192857D01*
X194465476Y-67335714D01*
X194465476Y-67442857D01*
X194433571Y-67585714D01*
X194401666Y-67657142D01*
X194337857Y-67728571D01*
X194242142Y-67764285D01*
X194082619Y-67764285D01*
X195103571Y-67764285D02*
X194720714Y-67764285D01*
X194912142Y-67764285D02*
X194912142Y-67014285D01*
X194848333Y-67121428D01*
X194784523Y-67192857D01*
X194720714Y-67228571D01*
X195869285Y-66978571D02*
X195295000Y-67942857D01*
X196060714Y-67085714D02*
X196092619Y-67050000D01*
X196156428Y-67014285D01*
X196315952Y-67014285D01*
X196379761Y-67050000D01*
X196411666Y-67085714D01*
X196443571Y-67157142D01*
X196443571Y-67228571D01*
X196411666Y-67335714D01*
X196028809Y-67764285D01*
X196443571Y-67764285D01*
X194072380Y-80021428D02*
X194295714Y-80021428D01*
X194391428Y-80414285D02*
X194072380Y-80414285D01*
X194072380Y-79664285D01*
X194391428Y-79664285D01*
X194965714Y-79664285D02*
X194838095Y-79664285D01*
X194774285Y-79700000D01*
X194742380Y-79735714D01*
X194678571Y-79842857D01*
X194646666Y-79985714D01*
X194646666Y-80271428D01*
X194678571Y-80342857D01*
X194710476Y-80378571D01*
X194774285Y-80414285D01*
X194901904Y-80414285D01*
X194965714Y-80378571D01*
X194997619Y-80342857D01*
X195029523Y-80271428D01*
X195029523Y-80092857D01*
X194997619Y-80021428D01*
X194965714Y-79985714D01*
X194901904Y-79950000D01*
X194774285Y-79950000D01*
X194710476Y-79985714D01*
X194678571Y-80021428D01*
X194646666Y-80092857D01*
X195795238Y-79628571D02*
X195220952Y-80592857D01*
X195954761Y-79664285D02*
X196401428Y-79664285D01*
X196114285Y-80414285D01*
X185138095Y-62764285D02*
X184914761Y-62407142D01*
X184755238Y-62764285D02*
X184755238Y-62014285D01*
X185010476Y-62014285D01*
X185074285Y-62050000D01*
X185106190Y-62085714D01*
X185138095Y-62157142D01*
X185138095Y-62264285D01*
X185106190Y-62335714D01*
X185074285Y-62371428D01*
X185010476Y-62407142D01*
X184755238Y-62407142D01*
X185393333Y-62728571D02*
X185489047Y-62764285D01*
X185648571Y-62764285D01*
X185712380Y-62728571D01*
X185744285Y-62692857D01*
X185776190Y-62621428D01*
X185776190Y-62550000D01*
X185744285Y-62478571D01*
X185712380Y-62442857D01*
X185648571Y-62407142D01*
X185520952Y-62371428D01*
X185457142Y-62335714D01*
X185425238Y-62300000D01*
X185393333Y-62228571D01*
X185393333Y-62157142D01*
X185425238Y-62085714D01*
X185457142Y-62050000D01*
X185520952Y-62014285D01*
X185680476Y-62014285D01*
X185776190Y-62050000D01*
X185967619Y-62014285D02*
X186350476Y-62014285D01*
X186159047Y-62764285D02*
X186159047Y-62014285D01*
X184994523Y-59500000D02*
X184930714Y-59464285D01*
X184835000Y-59464285D01*
X184739285Y-59500000D01*
X184675476Y-59571428D01*
X184643571Y-59642857D01*
X184611666Y-59785714D01*
X184611666Y-59892857D01*
X184643571Y-60035714D01*
X184675476Y-60107142D01*
X184739285Y-60178571D01*
X184835000Y-60214285D01*
X184898809Y-60214285D01*
X184994523Y-60178571D01*
X185026428Y-60142857D01*
X185026428Y-59892857D01*
X184898809Y-59892857D01*
X185313571Y-60214285D02*
X185313571Y-59464285D01*
X185696428Y-60214285D01*
X185696428Y-59464285D01*
X186015476Y-60214285D02*
X186015476Y-59464285D01*
X186175000Y-59464285D01*
X186270714Y-59500000D01*
X186334523Y-59571428D01*
X186366428Y-59642857D01*
X186398333Y-59785714D01*
X186398333Y-59892857D01*
X186366428Y-60035714D01*
X186334523Y-60107142D01*
X186270714Y-60178571D01*
X186175000Y-60214285D01*
X186015476Y-60214285D01*
X184972380Y-78014285D02*
X184589523Y-78014285D01*
X184780952Y-78014285D02*
X184780952Y-77264285D01*
X184717142Y-77371428D01*
X184653333Y-77442857D01*
X184589523Y-77478571D01*
X185578571Y-77264285D02*
X185259523Y-77264285D01*
X185227619Y-77621428D01*
X185259523Y-77585714D01*
X185323333Y-77550000D01*
X185482857Y-77550000D01*
X185546666Y-77585714D01*
X185578571Y-77621428D01*
X185610476Y-77692857D01*
X185610476Y-77871428D01*
X185578571Y-77942857D01*
X185546666Y-77978571D01*
X185482857Y-78014285D01*
X185323333Y-78014285D01*
X185259523Y-77978571D01*
X185227619Y-77942857D01*
X186376190Y-77228571D02*
X185801904Y-78192857D01*
X186822857Y-77621428D02*
X186918571Y-77657142D01*
X186950476Y-77692857D01*
X186982380Y-77764285D01*
X186982380Y-77871428D01*
X186950476Y-77942857D01*
X186918571Y-77978571D01*
X186854761Y-78014285D01*
X186599523Y-78014285D01*
X186599523Y-77264285D01*
X186822857Y-77264285D01*
X186886666Y-77300000D01*
X186918571Y-77335714D01*
X186950476Y-77407142D01*
X186950476Y-77478571D01*
X186918571Y-77550000D01*
X186886666Y-77585714D01*
X186822857Y-77621428D01*
X186599523Y-77621428D01*
X187620476Y-78014285D02*
X187237619Y-78014285D01*
X187429047Y-78014285D02*
X187429047Y-77264285D01*
X187365238Y-77371428D01*
X187301428Y-77442857D01*
X187237619Y-77478571D01*
X184972380Y-85614285D02*
X184589523Y-85614285D01*
X184780952Y-85614285D02*
X184780952Y-84864285D01*
X184717142Y-84971428D01*
X184653333Y-85042857D01*
X184589523Y-85078571D01*
X185387142Y-84864285D02*
X185450952Y-84864285D01*
X185514761Y-84900000D01*
X185546666Y-84935714D01*
X185578571Y-85007142D01*
X185610476Y-85150000D01*
X185610476Y-85328571D01*
X185578571Y-85471428D01*
X185546666Y-85542857D01*
X185514761Y-85578571D01*
X185450952Y-85614285D01*
X185387142Y-85614285D01*
X185323333Y-85578571D01*
X185291428Y-85542857D01*
X185259523Y-85471428D01*
X185227619Y-85328571D01*
X185227619Y-85150000D01*
X185259523Y-85007142D01*
X185291428Y-84935714D01*
X185323333Y-84900000D01*
X185387142Y-84864285D01*
X186376190Y-84828571D02*
X185801904Y-85792857D01*
X186822857Y-85221428D02*
X186918571Y-85257142D01*
X186950476Y-85292857D01*
X186982380Y-85364285D01*
X186982380Y-85471428D01*
X186950476Y-85542857D01*
X186918571Y-85578571D01*
X186854761Y-85614285D01*
X186599523Y-85614285D01*
X186599523Y-84864285D01*
X186822857Y-84864285D01*
X186886666Y-84900000D01*
X186918571Y-84935714D01*
X186950476Y-85007142D01*
X186950476Y-85078571D01*
X186918571Y-85150000D01*
X186886666Y-85185714D01*
X186822857Y-85221428D01*
X186599523Y-85221428D01*
X187556666Y-84864285D02*
X187429047Y-84864285D01*
X187365238Y-84900000D01*
X187333333Y-84935714D01*
X187269523Y-85042857D01*
X187237619Y-85185714D01*
X187237619Y-85471428D01*
X187269523Y-85542857D01*
X187301428Y-85578571D01*
X187365238Y-85614285D01*
X187492857Y-85614285D01*
X187556666Y-85578571D01*
X187588571Y-85542857D01*
X187620476Y-85471428D01*
X187620476Y-85292857D01*
X187588571Y-85221428D01*
X187556666Y-85185714D01*
X187492857Y-85150000D01*
X187365238Y-85150000D01*
X187301428Y-85185714D01*
X187269523Y-85221428D01*
X187237619Y-85292857D01*
X194040476Y-72764285D02*
X194040476Y-72014285D01*
X194200000Y-72014285D01*
X194295714Y-72050000D01*
X194359523Y-72121428D01*
X194391428Y-72192857D01*
X194423333Y-72335714D01*
X194423333Y-72442857D01*
X194391428Y-72585714D01*
X194359523Y-72657142D01*
X194295714Y-72728571D01*
X194200000Y-72764285D01*
X194040476Y-72764285D01*
X194997619Y-72264285D02*
X194997619Y-72764285D01*
X194838095Y-71978571D02*
X194678571Y-72514285D01*
X195093333Y-72514285D01*
X195827142Y-71978571D02*
X195252857Y-72942857D01*
X196337619Y-72264285D02*
X196337619Y-72764285D01*
X196178095Y-71978571D02*
X196018571Y-72514285D01*
X196433333Y-72514285D01*
X194040476Y-77864285D02*
X194040476Y-77114285D01*
X194200000Y-77114285D01*
X194295714Y-77150000D01*
X194359523Y-77221428D01*
X194391428Y-77292857D01*
X194423333Y-77435714D01*
X194423333Y-77542857D01*
X194391428Y-77685714D01*
X194359523Y-77757142D01*
X194295714Y-77828571D01*
X194200000Y-77864285D01*
X194040476Y-77864285D01*
X194646666Y-77114285D02*
X195093333Y-77114285D01*
X194806190Y-77864285D01*
X195827142Y-77078571D02*
X195252857Y-78042857D01*
X196337619Y-77114285D02*
X196210000Y-77114285D01*
X196146190Y-77150000D01*
X196114285Y-77185714D01*
X196050476Y-77292857D01*
X196018571Y-77435714D01*
X196018571Y-77721428D01*
X196050476Y-77792857D01*
X196082380Y-77828571D01*
X196146190Y-77864285D01*
X196273809Y-77864285D01*
X196337619Y-77828571D01*
X196369523Y-77792857D01*
X196401428Y-77721428D01*
X196401428Y-77542857D01*
X196369523Y-77471428D01*
X196337619Y-77435714D01*
X196273809Y-77400000D01*
X196146190Y-77400000D01*
X196082380Y-77435714D01*
X196050476Y-77471428D01*
X196018571Y-77542857D01*
X194263809Y-82571428D02*
X194359523Y-82607142D01*
X194391428Y-82642857D01*
X194423333Y-82714285D01*
X194423333Y-82821428D01*
X194391428Y-82892857D01*
X194359523Y-82928571D01*
X194295714Y-82964285D01*
X194040476Y-82964285D01*
X194040476Y-82214285D01*
X194263809Y-82214285D01*
X194327619Y-82250000D01*
X194359523Y-82285714D01*
X194391428Y-82357142D01*
X194391428Y-82428571D01*
X194359523Y-82500000D01*
X194327619Y-82535714D01*
X194263809Y-82571428D01*
X194040476Y-82571428D01*
X194997619Y-82464285D02*
X194997619Y-82964285D01*
X194838095Y-82178571D02*
X194678571Y-82714285D01*
X195093333Y-82714285D01*
X195827142Y-82178571D02*
X195252857Y-83142857D01*
X196146190Y-82535714D02*
X196082380Y-82500000D01*
X196050476Y-82464285D01*
X196018571Y-82392857D01*
X196018571Y-82357142D01*
X196050476Y-82285714D01*
X196082380Y-82250000D01*
X196146190Y-82214285D01*
X196273809Y-82214285D01*
X196337619Y-82250000D01*
X196369523Y-82285714D01*
X196401428Y-82357142D01*
X196401428Y-82392857D01*
X196369523Y-82464285D01*
X196337619Y-82500000D01*
X196273809Y-82535714D01*
X196146190Y-82535714D01*
X196082380Y-82571428D01*
X196050476Y-82607142D01*
X196018571Y-82678571D01*
X196018571Y-82821428D01*
X196050476Y-82892857D01*
X196082380Y-82928571D01*
X196146190Y-82964285D01*
X196273809Y-82964285D01*
X196337619Y-82928571D01*
X196369523Y-82892857D01*
X196401428Y-82821428D01*
X196401428Y-82678571D01*
X196369523Y-82607142D01*
X196337619Y-82571428D01*
X196273809Y-82535714D01*
X184669285Y-67700000D02*
X184988333Y-67700000D01*
X184605476Y-67914285D02*
X184828809Y-67164285D01*
X185052142Y-67914285D01*
X185211666Y-67164285D02*
X185626428Y-67164285D01*
X185403095Y-67450000D01*
X185498809Y-67450000D01*
X185562619Y-67485714D01*
X185594523Y-67521428D01*
X185626428Y-67592857D01*
X185626428Y-67771428D01*
X185594523Y-67842857D01*
X185562619Y-67878571D01*
X185498809Y-67914285D01*
X185307380Y-67914285D01*
X185243571Y-67878571D01*
X185211666Y-67842857D01*
X186392142Y-67128571D02*
X185817857Y-68092857D01*
X186838809Y-67521428D02*
X186615476Y-67521428D01*
X186615476Y-67914285D02*
X186615476Y-67164285D01*
X186934523Y-67164285D01*
X187476904Y-67414285D02*
X187476904Y-67914285D01*
X187317380Y-67128571D02*
X187157857Y-67664285D01*
X187572619Y-67664285D01*
D10*
%TO.C,SW19*%
X184452380Y-95052380D02*
X183976190Y-95385714D01*
X184452380Y-95623809D02*
X183452380Y-95623809D01*
X183452380Y-95242857D01*
X183500000Y-95147619D01*
X183547619Y-95100000D01*
X183642857Y-95052380D01*
X183785714Y-95052380D01*
X183880952Y-95100000D01*
X183928571Y-95147619D01*
X183976190Y-95242857D01*
X183976190Y-95623809D01*
X183928571Y-94623809D02*
X183928571Y-94290476D01*
X184452380Y-94147619D02*
X184452380Y-94623809D01*
X183452380Y-94623809D01*
X183452380Y-94147619D01*
X184404761Y-93766666D02*
X184452380Y-93623809D01*
X184452380Y-93385714D01*
X184404761Y-93290476D01*
X184357142Y-93242857D01*
X184261904Y-93195238D01*
X184166666Y-93195238D01*
X184071428Y-93242857D01*
X184023809Y-93290476D01*
X183976190Y-93385714D01*
X183928571Y-93576190D01*
X183880952Y-93671428D01*
X183833333Y-93719047D01*
X183738095Y-93766666D01*
X183642857Y-93766666D01*
X183547619Y-93719047D01*
X183500000Y-93671428D01*
X183452380Y-93576190D01*
X183452380Y-93338095D01*
X183500000Y-93195238D01*
X183928571Y-92766666D02*
X183928571Y-92433333D01*
X184452380Y-92290476D02*
X184452380Y-92766666D01*
X183452380Y-92766666D01*
X183452380Y-92290476D01*
X183452380Y-92004761D02*
X183452380Y-91433333D01*
X184452380Y-91719047D02*
X183452380Y-91719047D01*
D12*
%TO.C,SW18*%
X184073960Y-121400162D02*
X177650162Y-135176040D01*
X197849838Y-127823960D02*
X184073960Y-121400162D01*
X177650162Y-135176040D02*
X191426040Y-141599838D01*
X191426040Y-141599838D02*
X197849838Y-127823960D01*
D10*
%TO.C,D4*%
X114975000Y-52250000D02*
X115875000Y-52750000D01*
X115975000Y-53250000D02*
X115975000Y-52250000D01*
X114975000Y-53250000D02*
X114975000Y-52250000D01*
X115875000Y-52750000D02*
X114975000Y-53250000D01*
D12*
%TO.C,SW7*%
X126400000Y-51600000D02*
X141600000Y-51600000D01*
X141600000Y-36400000D02*
X126400000Y-36400000D01*
X126400000Y-36400000D02*
X126400000Y-51600000D01*
X141600000Y-51600000D02*
X141600000Y-36400000D01*
D10*
%TO.C,D3*%
X97475000Y-95750000D02*
X97475000Y-94750000D01*
X97375000Y-95250000D02*
X96475000Y-95750000D01*
X96475000Y-94750000D02*
X97375000Y-95250000D01*
X96475000Y-95750000D02*
X96475000Y-94750000D01*
%TO.C,D5*%
X115975000Y-70750000D02*
X115975000Y-69750000D01*
X114975000Y-69750000D02*
X115875000Y-70250000D01*
X114975000Y-70750000D02*
X114975000Y-69750000D01*
X115875000Y-70250000D02*
X114975000Y-70750000D01*
D12*
%TO.C,SW5*%
X123100000Y-69100000D02*
X123100000Y-53900000D01*
X123100000Y-53900000D02*
X107900000Y-53900000D01*
X107900000Y-69100000D02*
X123100000Y-69100000D01*
X107900000Y-53900000D02*
X107900000Y-69100000D01*
D10*
%TO.C,D9*%
X133475000Y-88250000D02*
X133475000Y-87250000D01*
X134475000Y-88250000D02*
X134475000Y-87250000D01*
X134375000Y-87750000D02*
X133475000Y-88250000D01*
X133475000Y-87250000D02*
X134375000Y-87750000D01*
D12*
%TO.C,SW4*%
X107900000Y-36400000D02*
X107900000Y-51600000D01*
X123100000Y-36400000D02*
X107900000Y-36400000D01*
X107900000Y-51600000D02*
X123100000Y-51600000D01*
X123100000Y-51600000D02*
X123100000Y-36400000D01*
D10*
%TO.C,D6*%
X115875000Y-87750000D02*
X114975000Y-88250000D01*
X114975000Y-88250000D02*
X114975000Y-87250000D01*
X114975000Y-87250000D02*
X115875000Y-87750000D01*
X115975000Y-88250000D02*
X115975000Y-87250000D01*
%TO.C,D17*%
X170475000Y-88250000D02*
X170475000Y-87250000D01*
X171375000Y-87750000D02*
X170475000Y-88250000D01*
X170475000Y-87250000D02*
X171375000Y-87750000D01*
X171475000Y-88250000D02*
X171475000Y-87250000D01*
D12*
%TO.C,SW14*%
X161150162Y-126676040D02*
X174926040Y-133099838D01*
X181349838Y-119323960D02*
X167573960Y-112900162D01*
X174926040Y-133099838D02*
X181349838Y-119323960D01*
X167573960Y-112900162D02*
X161150162Y-126676040D01*
D10*
%TO.C,D7*%
X134475000Y-53250000D02*
X134475000Y-52250000D01*
X133475000Y-53250000D02*
X133475000Y-52250000D01*
X133475000Y-52250000D02*
X134375000Y-52750000D01*
X134375000Y-52750000D02*
X133475000Y-53250000D01*
D12*
%TO.C,SW1*%
X89400000Y-59100000D02*
X104600000Y-59100000D01*
X89400000Y-43900000D02*
X89400000Y-59100000D01*
X104600000Y-59100000D02*
X104600000Y-43900000D01*
X104600000Y-43900000D02*
X89400000Y-43900000D01*
D10*
%TO.C,D14*%
X174991845Y-114664463D02*
X174387477Y-113830953D01*
X174508155Y-113335537D02*
X174085537Y-114241845D01*
X174387477Y-113830953D02*
X175414463Y-113758155D01*
X175414463Y-113758155D02*
X174991845Y-114664463D01*
D12*
%TO.C,SW2*%
X89400000Y-61400000D02*
X89400000Y-76600000D01*
X104600000Y-61400000D02*
X89400000Y-61400000D01*
X89400000Y-76600000D02*
X104600000Y-76600000D01*
X104600000Y-76600000D02*
X104600000Y-61400000D01*
%TO.C,REF\u002A\u002A*%
X201995000Y-49900000D02*
X202205000Y-49700000D01*
X197855000Y-50100000D02*
X197855000Y-48400000D01*
X202205000Y-49700000D02*
X202205000Y-48800000D01*
X198905000Y-51950000D02*
X199695000Y-51950000D01*
X201995000Y-48600000D02*
X200705000Y-48600000D01*
X199695000Y-45050000D02*
X198905000Y-45050000D01*
X201995000Y-48600000D02*
X202205000Y-48800000D01*
X197855000Y-47100000D02*
X197855000Y-46900000D01*
X200705000Y-49900000D02*
X201995000Y-49900000D01*
X200705000Y-51350000D02*
X200705000Y-45650000D01*
D10*
%TO.C,D2*%
X97625000Y-77750000D02*
X96725000Y-78250000D01*
X96725000Y-78250000D02*
X96725000Y-77250000D01*
X96725000Y-77250000D02*
X97625000Y-77750000D01*
X97725000Y-78250000D02*
X97725000Y-77250000D01*
%TO.C,U1*%
X186750000Y-51925000D02*
X194250000Y-51925000D01*
X191000000Y-50975000D02*
X190500000Y-51625000D01*
X199250000Y-86425000D02*
X198390000Y-86425000D01*
X194250000Y-50625000D02*
X186750000Y-50625000D01*
X181750000Y-86425000D02*
X182600000Y-86425000D01*
X190250000Y-51275000D02*
X190750000Y-51275000D01*
X181750000Y-56225000D02*
X181750000Y-57075000D01*
X181750000Y-56225000D02*
X182600000Y-56225000D01*
X199250000Y-56225000D02*
X199250000Y-57075000D01*
X199250000Y-56225000D02*
X198450000Y-56225000D01*
X194250000Y-51925000D02*
X194250000Y-50625000D01*
X190350000Y-51425000D02*
X190650000Y-51425000D01*
X190000000Y-50975000D02*
X191000000Y-50975000D01*
X190500000Y-51625000D02*
X190000000Y-50975000D01*
X199250000Y-85575000D02*
X199250000Y-86425000D01*
X181750000Y-85525000D02*
X181750000Y-86425000D01*
X190150000Y-51125000D02*
X190850000Y-51125000D01*
X186750000Y-50625000D02*
X186750000Y-51925000D01*
%TO.C,SW19*%
X185600000Y-90750000D02*
X185350000Y-90750000D01*
X182400000Y-90750000D02*
X182650000Y-90750000D01*
X185600000Y-96450000D02*
X185600000Y-90750000D01*
X182400000Y-96450000D02*
X182400000Y-90750000D01*
X182400000Y-96450000D02*
X182650000Y-96450000D01*
X185600000Y-96450000D02*
X185350000Y-96450000D01*
%TO.C,D18*%
X190887477Y-122330953D02*
X191914463Y-122258155D01*
X191914463Y-122258155D02*
X191491845Y-123164463D01*
X191008155Y-121835537D02*
X190585537Y-122741845D01*
X191491845Y-123164463D02*
X190887477Y-122330953D01*
D12*
%TO.C,SW15*%
X178600000Y-51600000D02*
X178600000Y-36400000D01*
X163400000Y-36400000D02*
X163400000Y-51600000D01*
X163400000Y-51600000D02*
X178600000Y-51600000D01*
X178600000Y-36400000D02*
X163400000Y-36400000D01*
%TO.C,SW13*%
X144900000Y-71400000D02*
X144900000Y-86600000D01*
X144900000Y-86600000D02*
X160100000Y-86600000D01*
X160100000Y-86600000D02*
X160100000Y-71400000D01*
X160100000Y-71400000D02*
X144900000Y-71400000D01*
%TO.C,SW16*%
X163400000Y-53900000D02*
X163400000Y-69100000D01*
X178600000Y-53900000D02*
X163400000Y-53900000D01*
X178600000Y-69100000D02*
X178600000Y-53900000D01*
X163400000Y-69100000D02*
X178600000Y-69100000D01*
%TO.C,SW11*%
X144900000Y-36400000D02*
X144900000Y-51600000D01*
X144900000Y-51600000D02*
X160100000Y-51600000D01*
X160100000Y-51600000D02*
X160100000Y-36400000D01*
X160100000Y-36400000D02*
X144900000Y-36400000D01*
D10*
%TO.C,D13*%
X151975000Y-88250000D02*
X151975000Y-87250000D01*
X152875000Y-87750000D02*
X151975000Y-88250000D01*
X152975000Y-88250000D02*
X152975000Y-87250000D01*
X151975000Y-87250000D02*
X152875000Y-87750000D01*
%TO.C,D12*%
X151975000Y-69750000D02*
X152875000Y-70250000D01*
X152975000Y-70750000D02*
X152975000Y-69750000D01*
X151975000Y-70750000D02*
X151975000Y-69750000D01*
X152875000Y-70250000D02*
X151975000Y-70750000D01*
%TO.C,J1*%
X187500000Y-91100000D02*
X199500000Y-91100000D01*
X199500000Y-97100000D02*
X187500000Y-97100000D01*
X199500000Y-91100000D02*
X199500000Y-97100000D01*
X187500000Y-97100000D02*
X187500000Y-91100000D01*
%TO.C,D1*%
X98000000Y-60000000D02*
X98000000Y-59000000D01*
X98900000Y-59500000D02*
X98000000Y-60000000D01*
X99000000Y-60000000D02*
X99000000Y-59000000D01*
X98000000Y-59000000D02*
X98900000Y-59500000D01*
%TO.C,D11*%
X151975000Y-52250000D02*
X152875000Y-52750000D01*
X151975000Y-53250000D02*
X151975000Y-52250000D01*
X152975000Y-53250000D02*
X152975000Y-52250000D01*
X152875000Y-52750000D02*
X151975000Y-53250000D01*
D12*
%TO.C,SW10*%
X158426040Y-124599838D02*
X164849838Y-110823960D01*
X164849838Y-110823960D02*
X151073960Y-104400162D01*
X151073960Y-104400162D02*
X144650162Y-118176040D01*
X144650162Y-118176040D02*
X158426040Y-124599838D01*
D10*
%TO.C,D15*%
X170500000Y-53250000D02*
X170500000Y-52250000D01*
X170500000Y-52250000D02*
X171400000Y-52750000D01*
X171500000Y-53250000D02*
X171500000Y-52250000D01*
X171400000Y-52750000D02*
X170500000Y-53250000D01*
D12*
%TO.C,SW9*%
X126400000Y-71400000D02*
X126400000Y-86600000D01*
X141600000Y-71400000D02*
X126400000Y-71400000D01*
X126400000Y-86600000D02*
X141600000Y-86600000D01*
X141600000Y-86600000D02*
X141600000Y-71400000D01*
D10*
%TO.C,D10*%
X157887477Y-105330953D02*
X158914463Y-105258155D01*
X158914463Y-105258155D02*
X158491845Y-106164463D01*
X158491845Y-106164463D02*
X157887477Y-105330953D01*
X158008155Y-104835537D02*
X157585537Y-105741845D01*
D12*
%TO.C,SW12*%
X144900000Y-69100000D02*
X160100000Y-69100000D01*
X160100000Y-69100000D02*
X160100000Y-53900000D01*
X144900000Y-53900000D02*
X144900000Y-69100000D01*
X160100000Y-53900000D02*
X144900000Y-53900000D01*
%TO.C,SW17*%
X163400000Y-71400000D02*
X163400000Y-86600000D01*
X178600000Y-86600000D02*
X178600000Y-71400000D01*
X178600000Y-71400000D02*
X163400000Y-71400000D01*
X163400000Y-86600000D02*
X178600000Y-86600000D01*
D10*
%TO.C,D16*%
X170475000Y-69750000D02*
X171375000Y-70250000D01*
X171375000Y-70250000D02*
X170475000Y-70750000D01*
X170475000Y-70750000D02*
X170475000Y-69750000D01*
X171475000Y-70750000D02*
X171475000Y-69750000D01*
%TO.C,D8*%
X134475000Y-70750000D02*
X134475000Y-69750000D01*
X133475000Y-69750000D02*
X134375000Y-70250000D01*
X134375000Y-70250000D02*
X133475000Y-70750000D01*
X133475000Y-70750000D02*
X133475000Y-69750000D01*
D12*
%TO.C,SW8*%
X126400000Y-53900000D02*
X126400000Y-69100000D01*
X126400000Y-69100000D02*
X141600000Y-69100000D01*
X141600000Y-53900000D02*
X126400000Y-53900000D01*
X141600000Y-69100000D02*
X141600000Y-53900000D01*
%TO.C,SW6*%
X123100000Y-86600000D02*
X123100000Y-71400000D01*
X123100000Y-71400000D02*
X107900000Y-71400000D01*
X107900000Y-71400000D02*
X107900000Y-86600000D01*
X107900000Y-86600000D02*
X123100000Y-86600000D01*
%TO.C,SW3*%
X89400000Y-94100000D02*
X104600000Y-94100000D01*
X104600000Y-94100000D02*
X104600000Y-78900000D01*
X104600000Y-78900000D02*
X89400000Y-78900000D01*
X89400000Y-78900000D02*
X89400000Y-94100000D01*
%TD*%
D13*
%TO.C,J1*%
X191000000Y-92350000D03*
X198000000Y-92350000D03*
X191000000Y-94100000D03*
X198000000Y-94100000D03*
D14*
X187700000Y-94450000D03*
X187700000Y-92000000D03*
X196200000Y-96200000D03*
X196200000Y-90250000D03*
X193200000Y-90250000D03*
X193200000Y-96200000D03*
X189200000Y-90250000D03*
X189200000Y-96200000D03*
%TD*%
M02*
