M48
; DRILL file {KiCad 6.0.1} date Sa 23 Apr 2022 16:15:53 CEST
; FORMAT={-:-/ absolute / inch / decimal}
; #@! TF.CreationDate,2022-04-23T16:15:53+02:00
; #@! TF.GenerationSoftware,Kicad,Pcbnew,6.0.1
; #@! TF.FileFunction,NonPlated,1,2,NPTH
FMAT,2
INCH
; #@! TA.AperFunction,NonPlated,NPTH,ComponentDrill
T1C0.0354
; #@! TA.AperFunction,NonPlated,NPTH,ComponentDrill
T2C0.0472
; #@! TA.AperFunction,NonPlated,NPTH,ComponentDrill
T3C0.0748
; #@! TA.AperFunction,NonPlated,NPTH,ComponentDrill
T4C0.0984
; #@! TA.AperFunction,NonPlated,NPTH,ComponentDrill
T5C0.1988
%
G90
G05
T1
X7.8467Y-1.8504
X7.8467Y-1.9685
T2
X7.5197Y-3.6358
X7.5197Y-3.7047
X7.7953Y-3.6358
X7.7953Y-3.7047
T3
X3.6024Y-2.0276
X3.6024Y-2.7165
X3.6024Y-3.4055
X4.0354Y-2.0276
X4.0354Y-2.7165
X4.0354Y-3.4055
X4.3307Y-1.7323
X4.3307Y-2.4213
X4.3307Y-3.1102
X4.7638Y-1.7323
X4.7638Y-2.4213
X4.7638Y-3.1102
X5.0591Y-1.7323
X5.0591Y-2.4213
X5.0591Y-3.1102
X5.4921Y-1.7323
X5.4921Y-2.4213
X5.4921Y-3.1102
X5.7874Y-1.7323
X5.7874Y-2.4213
X5.7874Y-3.1102
X5.8963Y-4.4164
X6.2205Y-1.7323
X6.2205Y-2.4213
X6.2205Y-3.1102
X6.2888Y-4.5994
X6.5157Y-1.7323
X6.5157Y-2.4213
X6.5157Y-3.1102
X6.5459Y-4.751
X6.9384Y-4.934
X6.9488Y-1.7323
X6.9488Y-2.4213
X6.9488Y-3.1102
X7.1955Y-5.0857
X7.588Y-5.2687
T4
X4.0551Y-1.5551
X4.0551Y-3.937
X7.7953Y-1.5551
X7.7953Y-4.685
T5
X3.8189Y-2.0276
X3.8189Y-2.7165
X3.8189Y-3.4055
X4.5472Y-1.7323
X4.5472Y-2.4213
X4.5472Y-3.1102
X5.2756Y-1.7323
X5.2756Y-2.4213
X5.2756Y-3.1102
X6.0039Y-1.7323
X6.0039Y-2.4213
X6.0039Y-3.1102
X6.0925Y-4.5079
X6.7323Y-1.7323
X6.7323Y-2.4213
X6.7323Y-3.1102
X6.7421Y-4.8425
X7.3917Y-5.1772
T0
M30
