M48
; DRILL file {KiCad 6.0.1} date Sa 23 Apr 2022 16:15:53 CEST
; FORMAT={-:-/ absolute / inch / decimal}
; #@! TF.CreationDate,2022-04-23T16:15:53+02:00
; #@! TF.GenerationSoftware,Kicad,Pcbnew,6.0.1
; #@! TF.FileFunction,Plated,1,2,PTH
FMAT,2
INCH
; #@! TA.AperFunction,Plated,PTH,ComponentDrill
T1C0.0320
; #@! TA.AperFunction,Plated,PTH,ComponentDrill
T2C0.0394
; #@! TA.AperFunction,Plated,PTH,ComponentDrill
T3C0.0472
; #@! TA.AperFunction,Plated,PTH,ComponentDrill
T4C0.0512
; #@! TA.AperFunction,Plated,PTH,ComponentDrill
T5C0.0630
%
G90
G05
T1
X3.6998Y-3.75
X3.7096Y-3.061
X3.7598Y-2.3425
X3.936Y-3.75
X3.9459Y-3.061
X3.9961Y-2.3425
X4.4281Y-2.0768
X4.4281Y-2.7657
X4.4281Y-3.4547
X4.6644Y-2.0768
X4.6644Y-2.7657
X4.6644Y-3.4547
X5.1565Y-2.0768
X5.1565Y-2.7657
X5.1565Y-3.4547
X5.3927Y-2.0768
X5.3927Y-2.7657
X5.3927Y-3.4547
X5.8848Y-2.0768
X5.8848Y-2.7657
X5.8848Y-3.4547
X6.1211Y-2.0768
X6.1211Y-2.7657
X6.1211Y-3.4547
X6.1233Y-4.1036
X6.3374Y-4.2035
X6.6132Y-2.7657
X6.6132Y-3.4547
X6.6142Y-2.0768
X6.7729Y-4.4383
X6.8494Y-2.7657
X6.8494Y-3.4547
X6.8504Y-2.0768
X6.987Y-4.5381
X7.2004Y-2.2578
X7.2004Y-2.3578
X7.2004Y-2.4578
X7.2004Y-2.5578
X7.2004Y-2.6578
X7.2004Y-2.7578
X7.2004Y-2.8578
X7.2004Y-2.9578
X7.2004Y-3.0578
X7.2004Y-3.1578
X7.2004Y-3.2578
X7.2004Y-3.3578
X7.4225Y-4.7729
X7.6366Y-4.8728
X7.7997Y-2.2578
X7.7997Y-2.3578
X7.7997Y-2.4578
X7.7997Y-2.5578
X7.7997Y-2.6578
X7.7997Y-2.7578
X7.7997Y-2.8578
X7.7997Y-2.9578
X7.7997Y-3.0578
X7.7997Y-3.1578
X7.7997Y-3.2578
X7.7997Y-3.3578
T3
X3.622Y-2.1772
X3.622Y-2.8661
X3.622Y-3.5551
X3.8189Y-2.2598
X3.8189Y-2.9488
X3.8189Y-3.6378
X4.0157Y-2.1772
X4.0157Y-2.8661
X4.0157Y-3.5551
X4.3504Y-1.8819
X4.3504Y-2.5709
X4.3504Y-3.2598
X4.5472Y-1.9646
X4.5472Y-2.6535
X4.5472Y-3.3425
X4.7441Y-1.8819
X4.7441Y-2.5709
X4.7441Y-3.2598
X5.0787Y-1.8819
X5.0787Y-2.5709
X5.0787Y-3.2598
X5.2756Y-1.9646
X5.2756Y-2.6535
X5.2756Y-3.3425
X5.4724Y-1.8819
X5.4724Y-2.5709
X5.4724Y-3.2598
X5.8071Y-1.8819
X5.8071Y-2.5709
X5.8071Y-3.2598
X5.9773Y-4.2891
X6.0039Y-1.9646
X6.0039Y-2.6535
X6.0039Y-3.3425
X6.1907Y-4.2974
X6.2008Y-1.8819
X6.2008Y-2.5709
X6.2008Y-3.2598
X6.3342Y-4.4555
X6.5354Y-1.8819
X6.5354Y-2.5709
X6.5354Y-3.2598
X6.6269Y-4.6237
X6.7323Y-1.9646
X6.7323Y-2.6535
X6.7323Y-3.3425
X6.8403Y-4.632
X6.9291Y-1.8819
X6.9291Y-2.5709
X6.9291Y-3.2598
X6.9838Y-4.7901
X7.2766Y-4.9584
X7.4899Y-4.9666
X7.6334Y-5.1248
T4
X7.2441Y-3.5571
X7.2441Y-3.813
T5
X3.622Y-1.8248
X3.622Y-2.5138
X3.622Y-3.2028
X4.0157Y-1.8248
X4.0157Y-2.5138
X4.0157Y-3.2028
X4.3504Y-1.5295
X4.3504Y-2.2185
X4.3504Y-2.9075
X4.7441Y-1.5295
X4.7441Y-2.2185
X4.7441Y-2.9075
X5.0787Y-1.5295
X5.0787Y-2.2185
X5.0787Y-2.9075
X5.4724Y-1.5295
X5.4724Y-2.2185
X5.4724Y-2.9075
X5.8071Y-1.5295
X5.8071Y-2.2185
X5.8071Y-2.9075
X5.8284Y-4.6084
X6.1852Y-4.7748
X6.2008Y-1.5295
X6.2008Y-2.2185
X6.2008Y-2.9075
X6.478Y-4.9431
X6.5354Y-1.5295
X6.5354Y-2.2185
X6.5354Y-2.9075
X6.8348Y-5.1095
X6.9291Y-1.5295
X6.9291Y-2.2185
X6.9291Y-2.9075
X7.1276Y-5.2777
X7.4845Y-5.4441
T2
G00X7.3996Y-3.622
M15
G01X7.3799Y-3.622
M16
G05
G00X7.3996Y-3.7185
M15
G01X7.3799Y-3.7185
M16
G05
G00X7.4587Y-3.5531
M15
G01X7.439Y-3.5531
M16
G05
G00X7.4587Y-3.7874
M15
G01X7.439Y-3.7874
M16
G05
G00X7.6161Y-3.5531
M15
G01X7.5965Y-3.5531
M16
G05
G00X7.6161Y-3.7874
M15
G01X7.5965Y-3.7874
M16
G05
G00X7.7343Y-3.5531
M15
G01X7.7146Y-3.5531
M16
G05
G00X7.7343Y-3.7874
M15
G01X7.7146Y-3.7874
M16
G05
T0
M30
